<?xml version="1.0" encoding="UTF-8"?><svg id="Ebene_2" xmlns="http://www.w3.org/2000/svg" viewBox="0 0 220.41 110.74"><defs><style>.cls-1{fill:#00305d;}.cls-2{fill:#fff;}.cls-3{fill:#af1773;}.cls-4{fill:#e50069;}.cls-5{fill:#238391;}.cls-6{fill:#0d5d92;}.cls-7{fill:#434688;}.cls-8{fill:#187092;}.cls-9{fill:#39a990;}.cls-10{fill:#2e9691;}.cls-11{fill:#792f7e;}</style></defs><g id="Ebene_1-2"><rect class="cls-1" width="220.41" height="110.74" rx="2" ry="2"/><path class="cls-2" d="m10,10.58h18.89v4.69h-13.33v8.05h11.29v4.69h-11.29v9.29h13.81v4.69H10V10.58Z"/><path class="cls-2" d="m35.82,10.58h5.57v26.71h13.04v4.69h-18.61V10.58Z"/><path class="cls-2" d="m59.92,10.58h6.3l5.55,15.34c.69,2,1.33,4.11,2.02,6.16h.19c.69-2.05,1.29-4.17,1.98-6.16l5.43-15.34h6.3v31.39h-5.11v-14.36c0-2.9.44-7.08.71-9.98h-.19l-2.54,7.3-5.17,14.1h-3.3l-5.18-14.1-2.5-7.3h-.19c.27,2.91.71,7.09.71,9.98v14.36h-5.01V10.58Z"/><path class="cls-2" d="m93.64,30.2c0-7.66,5.32-12.39,10.87-12.39,6.38,0,9.74,4.61,9.74,11.19,0,1.06-.12,2.11-.24,2.69h-14.97c.46,4.19,3.15,6.57,6.95,6.57,2.02,0,3.74-.63,5.47-1.71l1.88,3.44c-2.25,1.52-5.09,2.55-8.08,2.55-6.51,0-11.62-4.57-11.62-12.35Zm15.82-2.27c0-3.63-1.61-5.84-4.84-5.84-2.75,0-5.17,2.05-5.65,5.84h10.48Z"/><path class="cls-2" d="m120.01,10.58h5.57v14.27h.15l11.18-14.27h6.18l-9.66,12.25,11.29,19.14h-6.14l-8.49-14.77-4.51,5.61v9.16h-5.57V10.58Z"/><path class="cls-2" d="m145.85,37.95l3.25-3.82c2.25,2.14,5.26,3.58,8.18,3.58,3.53,0,5.47-1.6,5.47-4.05,0-2.58-2.03-3.41-4.88-4.62l-4.29-1.86c-3.09-1.29-6.35-3.73-6.35-8.32,0-5,4.42-8.85,10.54-8.85,3.67,0,7.22,1.52,9.68,4l-2.86,3.53c-2-1.7-4.13-2.7-6.82-2.7-2.98,0-4.92,1.39-4.92,3.69,0,2.47,2.39,3.38,4.99,4.45l4.23,1.78c3.73,1.56,6.35,3.92,6.35,8.47,0,5.09-4.22,9.33-11.27,9.33-4.24,0-8.33-1.67-11.31-4.6Z"/><path class="cls-2" d="m58.01,94.04c0-1.21,1.08-2.52,2.34-2.52,1.01,0,1.51.78,1.51,1.79,0,1.22-.99,2.44-2.26,2.44-1.01,0-1.59-.77-1.59-1.7Zm3.28-18.73c0-1.21,1.08-2.52,2.34-2.52,1.01,0,1.51.78,1.51,1.79,0,1.22-.99,2.44-2.26,2.44-1.01,0-1.59-.77-1.59-1.7Z"/><path class="cls-2" d="m75.35,63.53h2.06l-6.33,31.63h-2.06l6.33-31.63Z"/><path class="cls-2" d="m86.24,63.53h2.06l-6.33,31.63h-2.06l6.33-31.63Z"/><path class="cls-2" d="m110.59,70.66l2.04-10.03h1.98l-6.98,34.53h-1.66l.52-3.67h-.18c-2.37,2.47-5.33,4.24-8.5,4.24-4.05,0-6.72-2.91-6.72-8.31,0-8.86,6.14-15.89,12.51-15.89,2.71,0,4.7,1.49,5.9,3.73h.18l.91-4.6Zm-3.72,18.35l2.4-11.57c-1.7-2.98-3.54-4.16-5.7-4.16-5.46,0-10.48,6.85-10.48,13.79,0,4.66,1.99,6.92,5.15,6.92,2.98,0,5.9-1.79,8.63-4.98Z"/><path class="cls-2" d="m120.87,72.11h1.98l-4.63,23.05h-1.98l4.63-23.05Zm.62-7.14c0-1.27.98-2.16,2.02-2.16.89,0,1.61.64,1.61,1.65,0,1.2-.98,2.07-2.02,2.07-.89,0-1.61-.63-1.61-1.56Z"/><path class="cls-2" d="m125.05,103.09l1.1-1.46c1.74,1.6,4.01,2.92,6.82,2.92,4.51,0,7.04-3.25,8.08-8.11l1.16-5.41c-2.62,2.54-5.38,4.21-8.56,4.21-3.95,0-6.66-2.86-6.66-8.18,0-8.54,6.12-15.52,12.22-15.52,2.66,0,4.72,1.5,5.93,3.75h.18l.88-3.18h1.66l-5.04,25.03c-1.19,5.66-4.6,9.13-9.96,9.13-3.29,0-5.8-1.49-7.82-3.19Zm17.45-14.27l2.37-11.38c-1.74-2.98-3.53-4.16-5.69-4.16-5.2,0-10.19,6.81-10.19,13.42,0,4.53,1.9,6.79,5.05,6.79,2.55,0,5.83-1.78,8.46-4.68Z"/><path class="cls-2" d="m156.44,72.11h1.98l-4.63,23.05h-1.98l4.63-23.05Zm.62-7.14c0-1.27.98-2.16,2.02-2.16.89,0,1.61.64,1.61,1.65,0,1.2-.98,2.07-2.02,2.07-.89,0-1.61-.63-1.61-1.56Z"/><path class="cls-2" d="m163.92,91.18c0-.88.11-1.51.21-2.3l3.12-15.04h-3.59l.29-1.52,3.72-.2,1.59-6.58h1.68l-1.32,6.58h6.22l-.37,1.72h-6.24l-3.12,15.16c-.1.58-.18,1.14-.18,1.8,0,2.13.77,3.24,3.25,3.24,1.09,0,2.02-.45,2.77-.83l.57,1.49c-.91.48-2.24,1.06-3.72,1.06-3.62,0-4.87-2.09-4.87-4.56Z"/><path class="cls-2" d="m176.43,87.43c0-8.86,6.14-15.89,12.51-15.89,2.71,0,4.73,1.5,5.94,3.75h.18l.88-3.18h1.65l-4.63,23.05h-1.66l.52-3.67h-.18c-2.37,2.47-5.33,4.24-8.5,4.24-4.05,0-6.72-2.91-6.72-8.31Zm15.78,1.58l2.4-11.57c-1.7-2.98-3.54-4.16-5.7-4.16-5.46,0-10.48,6.85-10.48,13.79,0,4.66,1.99,6.92,5.15,6.92,2.98,0,5.91-1.79,8.63-4.98Z"/><path class="cls-2" d="m201.92,93.66c0-.35.1-.88.21-1.45l6.3-31.58h1.98l-6.31,31.69c-.1.48-.1.76-.1.96,0,.44.22.72.7.72.2,0,.31,0,.78-.18l.14,1.6c-.52.2-.91.32-1.6.32-1.26,0-2.1-.72-2.1-2.08Z"/><rect class="cls-9" x="10" y="48.9" width="22.31" height="4.77"/><rect class="cls-10" x="32.19" y="48.9" width="22.31" height="4.77"/><rect class="cls-5" x="54.39" y="48.9" width="22.31" height="4.77"/><rect class="cls-8" x="76.58" y="48.9" width="22.31" height="4.77"/><rect class="cls-6" x="98.78" y="48.9" width="22.31" height="4.77"/><rect class="cls-7" x="121.11" y="48.9" width="22.31" height="4.77"/><rect class="cls-11" x="143.44" y="48.9" width="22.31" height="4.77"/><rect class="cls-3" x="165.77" y="48.9" width="22.31" height="4.77"/><rect class="cls-4" x="188.1" y="48.9" width="22.31" height="4.77"/></g></svg>